<?xml version="1.0" encoding="UTF-8"?>
<svg width="59px" height="59px" viewBox="0 0 59 59" version="1.1" xmlns="http://www.w3.org/2000/svg" xmlns:xlink="http://www.w3.org/1999/xlink">
    <!-- Generator: Sketch 41 (35326) - http://www.bohemiancoding.com/sketch -->
    <title>google-plus-icon</title>
    <desc>Created with Sketch.</desc>
    <defs>
        <rect id="path-1" x="0" y="0" width="57.8435734" height="58.2926995"></rect>
    </defs>
    <g id="SistemaWeb" stroke="none" stroke-width="1" fill="none" fill-rule="evenodd">
        <g id="Login" transform="translate(-558.000000, -684.000000)">
            <g id="Group-7" transform="translate(431.000000, 212.000000)">
                <g id="Group-6">
                    <g id="google-plus-icon" transform="translate(127.255862, 472.170866)">
                        <mask id="mask-2" fill="white">
                            <use xlink:href="#path-1"></use>
                        </mask>
                        <use id="Mask" fill="#DC4E41" xlink:href="#path-1"></use>
                        <g id="google-plus" mask="url(#mask-2)">
                            <g transform="translate(3.470614, 2.331708)" id="Capa_1">
                                <g>
                                    <g id="Group">
                                        <ellipse id="XMLID_30_" fill="#DC4E41" cx="25.8444062" cy="26.8602737" rx="25.8444062" ry="26.3903118"></ellipse>
                                        <g transform="translate(8.753320, 16.935563)" id="Shape">
                                            <path d="M0.244632246,11.105966 C0.152952741,15.6465787 3.21569317,19.9797307 7.42880407,21.3929094 C11.3972827,22.7543405 16.2765673,21.7358545 18.9173056,18.2654754 C20.8453394,15.8338108 21.2834661,12.5920617 21.0747685,9.56341847 C17.676177,9.53236994 14.2775855,9.54271945 10.8840618,9.5478942 C10.8785334,10.7841903 10.8840618,12.0157821 10.8891295,13.2520782 C12.9240459,13.309471 14.9594231,13.2831268 16.9943395,13.3249952 C16.4806579,15.1225171 15.3104772,16.7953744 13.5344748,17.444571 C10.105477,18.987589 5.73019938,16.9717865 4.65123757,13.298651 C3.34883577,9.78122863 5.48096012,5.53651788 9.00117667,4.5133276 C11.1839781,3.72911694 13.4326599,4.61211839 15.3003418,5.77079317 C16.2466217,4.86662227 17.1320891,3.9003543 18.0018926,2.92373682 C15.8799037,1.11069069 13.1530143,-0.000940864624 10.3496486,0.243213505 C4.84933901,0.310014894 0.0359346801,5.49511984 0.244632246,11.105966 L0.244632246,11.105966 Z" fill="#DC4E41"></path>
                                            <path d="M27.6890531,6.42986884 C27.6789177,7.46387906 27.6683216,8.50306404 27.6632539,9.53660383 C26.6455653,9.54695334 25.6334052,9.55212809 24.6207843,9.55730285 L24.6207843,12.6536883 C25.6334052,12.6588631 26.6510937,12.6640378 27.6632539,12.6748578 C27.6733893,13.708868 27.6733893,14.7424078 27.6835247,15.7815928 C28.6910779,15.7815928 29.7036987,15.776418 30.7158589,15.7815928 C30.7213873,14.7424078 30.7259943,13.708868 30.7365904,12.669683 C31.7487506,12.6645083 32.7664392,12.6593335 33.77906,12.6541588 L33.77906,9.55777328 C32.7668999,9.55259853 31.7492113,9.54742377 30.7365904,9.53707426 C30.731062,8.50306404 30.7213873,7.46387906 30.7158589,6.43033927 C29.7036987,6.42986884 28.6961456,6.42986884 27.6890531,6.42986884 L27.6890531,6.42986884 Z" fill="#DC4E41"></path>
                                            <g fill="#FFFFFF">
                                                <path d="M0.244632246,11.105966 C0.0359346801,5.49511984 4.84887831,0.310014894 10.3491879,0.242743073 C13.1525536,-0.00141129694 15.8799037,1.11022026 18.0014319,2.92326639 C17.1311677,3.9003543 16.2457003,4.86615183 15.2998811,5.77032274 C13.4321992,4.61164795 11.1835174,3.7286465 9.00071597,4.51285717 C5.48003872,5.53651788 3.34791437,9.78122863 4.65077687,13.2981806 C5.72973868,16.9713161 10.1050163,18.9871185 13.5340141,17.4441006 C15.3095558,16.794904 16.4801972,15.1220467 16.9938788,13.3245248 C14.9589624,13.2831268 12.9235852,13.3090005 10.8886688,13.2516078 C10.8836011,12.0153117 10.8785334,10.7837199 10.8836011,9.54742377 C14.2771248,9.54224902 17.6757163,9.5318995 21.0743078,9.56294804 C21.2830054,12.5920617 20.8453394,15.8338108 18.9168449,18.2650049 C16.2761066,21.7353841 11.3972827,22.7538701 7.42834336,21.392439 C3.21615387,19.9797307 0.152952741,15.6465787 0.244632246,11.105966 L0.244632246,11.105966 Z"></path>
                                                <path d="M27.6890531,6.42986884 L30.7158589,6.42986884 C30.7213873,7.46387906 30.731062,8.50306404 30.7365904,9.53660383 C31.7487506,9.54695334 32.7664392,9.55212809 33.77906,9.55730285 L33.77906,12.6536883 C32.7668999,12.6588631 31.7492113,12.6640378 30.7365904,12.6692126 C30.726455,13.7083976 30.7213873,14.7419374 30.7158589,15.7811223 C29.7036987,15.7759476 28.6906172,15.7811223 27.6835247,15.7811223 C27.67385,14.7419374 27.67385,13.7083976 27.6632539,12.6743873 C26.6510937,12.6635674 25.6334052,12.6588631 24.6207843,12.6532179 L24.6207843,9.55683242 C25.6334052,9.55165766 26.646026,9.54648291 27.6632539,9.5361334 C27.6683216,8.50306404 27.678457,7.46387906 27.6890531,6.42986884 L27.6890531,6.42986884 Z"></path>
                                            </g>
                                        </g>
                                    </g>
                                </g>
                            </g>
                        </g>
                    </g>
                </g>
            </g>
        </g>
    </g>
</svg>