<?xml version="1.0" encoding="UTF-8"?>
<svg width="43px" height="30px" viewBox="0 0 43 30" version="1.1" xmlns="http://www.w3.org/2000/svg" xmlns:xlink="http://www.w3.org/1999/xlink">
    <!-- Generator: Sketch 41 (35326) - http://www.bohemiancoding.com/sketch -->
    <title>key-icon-plus-bar</title>
    <desc>Created with Sketch.</desc>
    <defs></defs>
    <g id="SistemaWeb" stroke="none" stroke-width="1" fill="none" fill-rule="evenodd">
        <g id="Login" transform="translate(-505.000000, -623.000000)">
            <g id="Group-7" transform="translate(431.000000, 212.000000)">
                <g id="Group-6">
                    <g id="Group-4" transform="translate(57.843573, 396.390357)">
                        <g id="key-icon-plus-bar" transform="translate(16.196201, 14.321956)">
                            <rect id="Rectangle-6" fill="#D4D4D4" x="40.4905014" y="0.83414601" width="2.31374294" height="29.1463498"></rect>
                            <g id="Layer_1" transform="translate(0.000000, 2.000000)">
                                <g id="Group">
                                    <path d="M21.006832,4.47012865 C21.896132,5.3645267 21.896132,6.81399348 21.006832,7.70833982 C20.117892,8.6023759 18.6763273,8.60273787 17.7870788,7.70833982 L0.00817522505,25.5892164 L7.95254014,25.5983693 L7.95218023,22.7166556 L10.8163883,22.7166556 L10.8163883,19.8360278 L13.6805964,19.8360278 L13.6805964,16.3498611 L14.8338173,15.1900292 C15.7252767,15.533754 16.6821894,15.7129335 17.6402332,15.7132955 C19.7267666,15.7129335 21.6885635,14.8960506 23.1636004,13.4118856 C26.2091545,10.348717 26.2095144,5.3645267 23.163549,2.3010479 L21.006832,4.47012865 Z" id="Shape" fill="#CDCACA"></path>
                                    <path d="M17.7870788,4.47012865 C18.6763787,3.5757306 20.1179434,3.57609258 21.006832,4.47012865 L23.163549,2.3010479 C21.6882036,0.817244843 19.7263553,0.00036197886 17.6398219,0 C15.5529286,0 13.5914916,0.817244843 12.1157349,2.30140988 C9.91176624,4.51801328 9.24314595,7.80193721 10.3476754,10.6796174 L0.0139852906,21.072651 L0.00452465286,25.5892164 L0.00817522505,25.5892164 L17.7870788,7.70839153 C16.8981388,6.81430375 16.8981388,5.36416473 17.7870788,4.47012865 L17.7870788,4.47012865 Z" id="Shape" fill="#D4D4D4"></path>
                                </g>
                            </g>
                        </g>
                    </g>
                </g>
            </g>
        </g>
    </g>
</svg>