<?xml version="1.0" encoding="UTF-8"?>
<svg width="60px" height="60px" viewBox="0 0 60 60" version="1.1" xmlns="http://www.w3.org/2000/svg" xmlns:xlink="http://www.w3.org/1999/xlink">
    <!-- Generator: Sketch 40 (33762) - http://www.bohemiancoding.com/sketch -->
    <title>left-arrow</title>
    <desc>Created with Sketch.</desc>
    <defs></defs>
    <g id="SistemaWeb" stroke="none" stroke-width="1" fill="none" fill-rule="evenodd">
        <g id="Login" transform="translate(-50.000000, -50.000000)" fill="#2C2A2A">
            <g id="left-arrow" transform="translate(50.000000, 50.000000)">
                <g id="Group">
                    <path d="M30,59.7948718 C46.4102564,59.7948718 59.7948718,46.4615385 59.7948718,30 C59.7948718,13.5384615 46.4615385,0.256410256 30,0.256410256 C13.5384615,0.256410256 0.256410256,13.5897436 0.256410256,30 C0.256410256,46.4102564 13.5897436,59.7948718 30,59.7948718 L30,59.7948718 Z M30,4.41025641 C44.1025641,4.41025641 55.5897436,15.8974359 55.5897436,30 C55.5897436,44.1025641 44.1025641,55.5897436 30,55.5897436 C15.8974359,55.5897436 4.41025641,44.1025641 4.41025641,30 C4.41025641,15.8974359 15.8974359,4.41025641 30,4.41025641 L30,4.41025641 Z" id="Shape"></path>
                    <path d="M32.8205128,44.8717949 C33.2307692,45.2820513 33.7435897,45.4871795 34.3076923,45.4871795 C34.8205128,45.4871795 35.3846154,45.2820513 35.7948718,44.8717949 C36.6153846,44.0512821 36.6153846,42.7179487 35.7948718,41.8974359 L23.7435897,29.8461538 L35.7948718,17.7948718 C36.6153846,16.974359 36.6153846,15.6410256 35.7948718,14.8205128 C34.974359,14 33.6410256,14 32.8205128,14.8205128 L19.2820513,28.3589744 C18.8717949,28.7692308 18.6666667,29.2820513 18.6666667,29.8461538 C18.6666667,30.4102564 18.8717949,30.9230769 19.2820513,31.3333333 L32.8205128,44.8717949 L32.8205128,44.8717949 Z" id="Shape"></path>
                </g>
            </g>
        </g>
    </g>
</svg>