<?xml version="1.0" encoding="UTF-8"?>
<svg width="66px" height="63px" viewBox="0 0 66 63" version="1.1" xmlns="http://www.w3.org/2000/svg" xmlns:xlink="http://www.w3.org/1999/xlink">
    <!-- Generator: Sketch 41 (35326) - http://www.bohemiancoding.com/sketch -->
    <title>Miviu Logo</title>
    <desc>Created with Sketch.</desc>
    <defs></defs>
    <g id="SistemaWeb" stroke="none" stroke-width="1" fill="none" fill-rule="evenodd">
        <g id="objetos" transform="translate(-17.000000, -19.000000)">
            <g id="Miviu-Logo" transform="translate(17.000000, 19.000000)">
                <path d="M61.2184698,40.4307358 C66.4535698,35.3916185 66.4572137,27.2129656 61.2267165,22.1782754 L42.2398179,3.9019475 C37.0093206,-1.13274275 28.5127593,-1.12908564 23.2776592,3.91003164 L4.30725396,22.1703837 C-0.927654276,27.209501 -0.931489935,35.3881539 4.29900729,40.4228441 L23.2859059,58.699172 C28.5164031,63.7338623 37.0131563,63.7302051 42.2480645,58.6912803 L61.2184698,40.4307358 Z" id="Fill-1" fill="#79CE4D"></path>
                <path d="M61.2184698,40.4307358 C66.4535698,35.3916185 66.4572137,27.2129656 61.2267165,22.1782754 L42.2398179,3.9019475 C37.0093206,-1.13274275 28.5127593,-1.12908564 23.2776592,3.91003164 L4.30725396,22.1703837 C-0.927654276,27.209501 -0.931489935,35.3881539 4.29900729,40.4228441 L23.2859059,58.699172 C28.5164031,63.7338623 37.0131563,63.7302051 42.2480645,58.6912803 L61.2184698,40.4307358 Z" id="Stroke-2" stroke="#76C74B" stroke-width="0.24" stroke-linejoin="round"></path>
                <path d="M32.9732478,15.1648943 C41.8767727,15.1648943 49.105265,22.1228412 49.105265,30.6931902 C49.105265,39.2633467 41.8767727,46.2212936 32.9732478,46.2212936 C24.0697229,46.2212936 16.8412306,39.2633467 16.8412306,30.6931902 C16.8412306,22.1228412 24.0697229,15.1648943 32.9732478,15.1648943 L32.9732478,15.1648943 Z" id="Fill-3" fill="#EBEBEB"></path>
                <path d="M32.9732478,15.1648943 C41.8767727,15.1648943 49.105265,22.1228412 49.105265,30.6931902 C49.105265,39.2633467 41.8767727,46.2212936 32.9732478,46.2212936 C24.0697229,46.2212936 16.8412306,39.2633467 16.8412306,30.6931902 C16.8412306,22.1228412 24.0697229,15.1648943 32.9732478,15.1648943 L32.9732478,15.1648943 Z" id="Stroke-4" stroke="#EAEAEA" stroke-width="0.24" stroke-linejoin="round"></path>
                <path d="M33.2077984,21.2318529 C38.5284336,21.2318529 42.8481535,25.3899908 42.8481535,30.5114894 C42.8481535,35.632988 38.5284336,39.7911259 33.2077984,39.7911259 C27.8871632,39.7911259 23.5674433,35.632988 23.5674433,30.5114894 C23.5674433,25.3899908 27.8871632,21.2318529 33.2077984,21.2318529 L33.2077984,21.2318529 Z" id="Fill-5" fill="#1A1A1B"></path>
                <path d="M33.2077984,21.2318529 C38.5284336,21.2318529 42.8481535,25.3899908 42.8481535,30.5114894 C42.8481535,35.632988 38.5284336,39.7911259 33.2077984,39.7911259 C27.8871632,39.7911259 23.5674433,35.632988 23.5674433,30.5114894 C23.5674433,25.3899908 27.8871632,21.2318529 33.2077984,21.2318529 L33.2077984,21.2318529 Z" id="Stroke-6" stroke="#1A1A1B" stroke-width="0.24" stroke-linejoin="round"></path>
                <path d="M39.4282794,19.0164121 C42.5585612,19.0164121 45.0998774,21.462636 45.0998774,24.4757125 C45.0998774,27.488789 42.5585612,29.9352053 39.4282794,29.9352053 C36.2979976,29.9352053 33.7566813,27.488789 33.7566813,24.4757125 C33.7566813,21.462636 36.2979976,19.0164121 39.4282794,19.0164121 L39.4282794,19.0164121 Z" id="Fill-7" fill="#F9F9F9"></path>
                <path d="M39.4282794,19.0164121 C42.5585612,19.0164121 45.0998774,21.462636 45.0998774,24.4757125 C45.0998774,27.488789 42.5585612,29.9352053 39.4282794,29.9352053 C36.2979976,29.9352053 33.7566813,27.488789 33.7566813,24.4757125 C33.7566813,21.462636 36.2979976,19.0164121 39.4282794,19.0164121 L39.4282794,19.0164121 Z" id="Stroke-8" stroke="#F9FAF9" stroke-width="0.24" stroke-linejoin="round"></path>
            </g>
        </g>
    </g>
</svg>