<?xml version="1.0" encoding="UTF-8"?>
<svg width="23px" height="23px" viewBox="0 0 23 23" version="1.1" xmlns="http://www.w3.org/2000/svg" xmlns:xlink="http://www.w3.org/1999/xlink">
    <!-- Generator: Sketch 41 (35326) - http://www.bohemiancoding.com/sketch -->
    <title>nav-search-icon</title>
    <desc>Created with Sketch.</desc>
    <defs></defs>
    <g id="SistemaWeb" stroke="none" stroke-width="1" fill="none" fill-rule="evenodd">
        <g id="perfil" transform="translate(-48.000000, -323.000000)">
            <g id="Group-6" transform="translate(45.000000, 314.000000)">
                <g id="nav-search-icon" transform="translate(0.000000, 6.000000)">
                    <polygon id="Stroke-1" stroke-opacity="0.00784313771" stroke="#000000" stroke-width="1.33333335e-11" points="0 0 29.9999981 0 29.9999981 29.9999981 0 29.9999981"></polygon>
                    <path d="M19.3749988,17.4999989 L18.3874989,17.4999989 L18.0374993,17.1624983 C19.2624986,15.7374992 19.9999988,13.8874987 19.9999988,11.8749993 C19.9999988,7.38749936 16.3624991,3.74999977 11.8749993,3.74999977 C7.38749936,3.74999977 3.74999978,7.38749936 3.74999978,11.8749993 C3.74999978,16.3624991 7.38749936,19.9999988 11.8749993,19.9999988 C13.8874987,19.9999988 15.7374992,19.2624986 17.1624983,18.0374993 L17.4999989,18.3874989 L17.4999989,19.3749988 L23.7499986,25.6124981 L25.6124981,23.7499986 L19.3749988,17.4999989 L19.3749988,17.4999989 Z M11.8749993,17.4999989 C8.76249975,17.4999989 6.24999963,14.9874987 6.24999963,11.8749993 C6.24999963,8.76249975 8.76249975,6.24999963 11.8749993,6.24999963 C14.9874987,6.24999963 17.4999989,8.76249975 17.4999989,11.8749993 C17.4999989,14.9874987 14.9874987,17.4999989 11.8749993,17.4999989 L11.8749993,17.4999989 Z" id="Fill-2" fill="#000000"></path>
                </g>
            </g>
        </g>
    </g>
</svg>