<?xml version="1.0" encoding="UTF-8"?>
<svg width="24px" height="24px" viewBox="0 0 24 24" version="1.1" xmlns="http://www.w3.org/2000/svg" xmlns:xlink="http://www.w3.org/1999/xlink">
    <!-- Generator: Sketch 41 (35326) - http://www.bohemiancoding.com/sketch -->
    <title>nav-logout-icon</title>
    <desc>Created with Sketch.</desc>
    <defs></defs>
    <g id="SistemaWeb" stroke="none" stroke-width="1" fill="none" fill-rule="evenodd">
        <g id="perfil" transform="translate(-48.000000, -962.000000)">
            <g id="Group-7" transform="translate(45.000000, 953.000000)">
                <g id="nav-logout-icon" transform="translate(0.000000, 6.000000)">
                    <polygon id="Stroke-1" stroke-opacity="0.00784313771" stroke="#000000" stroke-width="1.33333335e-11" points="0 0 29.9999981 0 29.9999981 29.9999981 0 29.9999981"></polygon>
                    <path d="M12.6124994,19.487499 L14.3749991,21.2499987 L20.6249988,14.9999991 L14.3749991,8.74999948 L12.6124994,10.5124992 L15.837499,13.7499992 L3.74999978,13.7499992 L3.74999978,16.249999 L15.837499,16.249999 L12.6124994,19.487499 L12.6124994,19.487499 Z M23.7499986,3.74999977 L6.24999962,3.74999977 C4.86249953,3.74999977 3.74999978,4.87499982 3.74999978,6.24999963 L3.74999978,11.2499993 L6.24999962,11.2499993 L6.24999962,6.24999963 L23.7499986,6.24999963 L23.7499986,23.7499986 L6.24999962,23.7499986 L6.24999962,18.7499989 L3.74999978,18.7499989 L3.74999978,23.7499986 C3.74999978,25.1249989 4.86249953,26.2499984 6.24999962,26.2499984 L23.7499986,26.2499984 C25.1249989,26.2499984 26.2499984,25.1249989 26.2499984,23.7499986 L26.2499984,6.24999963 C26.2499984,4.87499982 25.1249989,3.74999977 23.7499986,3.74999977 L23.7499986,3.74999977 Z" id="Fill-2" fill="#000000"></path>
                </g>
            </g>
        </g>
    </g>
</svg>