<?xml version="1.0" encoding="UTF-8"?>
<svg width="42px" height="30px" viewBox="0 0 42 30" version="1.1" xmlns="http://www.w3.org/2000/svg" xmlns:xlink="http://www.w3.org/1999/xlink">
    <!-- Generator: Sketch 41 (35326) - http://www.bohemiancoding.com/sketch -->
    <title>user-icon-and-bar</title>
    <desc>Created with Sketch.</desc>
    <defs></defs>
    <g id="SistemaWeb" stroke="none" stroke-width="1" fill="none" fill-rule="evenodd">
        <g id="Login" transform="translate(-506.000000, -547.000000)" fill="#D4D4D4">
            <g id="Group-7" transform="translate(431.000000, 212.000000)">
                <g id="Group-6">
                    <g id="Group-5" transform="translate(57.843573, 320.609847)">
                        <g id="user-icon-and-bar" transform="translate(17.353072, 15.156102)">
                            <g id="Capa_1">
                                <path d="M21.9406658,25.1045551 C21.9406658,23.5778894 21.0844812,22.1818797 19.7296451,21.4994531 L14.966526,19.099402 C14.35119,18.7893451 13.9622419,18.1551608 13.9622419,17.4616786 L13.9622419,15.5782214 C14.0958805,15.4249518 14.2494651,15.2274602 14.4130228,14.9942894 C15.0622671,14.0706516 15.5529401,13.054047 15.8935191,11.9871901 C16.5043672,11.7977389 16.9541508,11.2288825 16.9541508,10.5529887 L16.9541508,8.54289562 C16.9541508,8.10067514 16.7591781,7.70518933 16.4554993,7.42880153 L16.4554993,4.52270945 C16.4554993,4.52270945 17.0473987,0 10.9703329,0 C4.89276847,0 5.48516645,4.52270945 5.48516645,4.52270945 L5.48516645,7.42880153 C5.18148769,7.70518933 4.98651495,8.10067514 4.98651495,8.54289562 L4.98651495,10.5529887 C4.98651495,11.0826482 5.26276788,11.5484873 5.67614997,11.8178398 C6.17430281,14.0048211 7.47977243,15.5782214 7.47977243,15.5782214 L7.47977243,17.414944 C7.47977243,18.0848075 7.11675414,18.7014036 6.53283324,19.0220134 L2.08436325,21.4677942 C0.799338347,22.1738394 0,23.5311547 0,25.0060605 L0,26.1312101 L0,26.6337334 C0,28.0212002 4.91171723,29.1463498 10.9703329,29.1463498 C17.0289486,29.1463498 21.9406658,28.0212002 21.9406658,26.6337334 L21.9406658,26.1312101 L21.9406658,25.1045551 L21.9406658,25.1045551 Z" id="Shape"></path>
                            </g>
                            <rect id="Rectangle-6" x="39.3336299" y="0" width="2.31374294" height="29.1463498"></rect>
                        </g>
                    </g>
                </g>
            </g>
        </g>
    </g>
</svg>