<?xml version="1.0" encoding="UTF-8"?>
<svg width="86px" height="119px" viewBox="0 0 86 119" version="1.1" xmlns="http://www.w3.org/2000/svg" xmlns:xlink="http://www.w3.org/1999/xlink">
    <!-- Generator: Sketch 40 (33762) - http://www.bohemiancoding.com/sketch -->
    <title>Vertical Miviu Logo</title>
    <desc>Created with Sketch.</desc>
    <defs></defs>
    <g id="SistemaWeb" stroke="none" stroke-width="1" fill="none" fill-rule="evenodd">
        <g id="Login" transform="translate(-677.000000, -42.000000)">
            <g id="Page-1" transform="translate(677.000000, 42.000000)">
                <g id="Group-2">
                    <text id="Miviu" font-family="LilyScriptOne-Regular, Lily Script One" font-size="35" font-weight="normal" letter-spacing="0.911999941" fill="#1A1A1B">
                        <tspan x="0" y="118">Mivi</tspan>
                        <tspan x="64.0579998" y="118" letter-spacing="0.797999978">u</tspan>
                    </text>
                    <g id="Group" transform="translate(1.000000, 0.000000)">
                        <path d="M75.1075294,49.6035377 C81.5303529,43.4211609 81.5348235,33.3869602 75.1176471,27.2100148 L51.8230588,4.78720944 C45.4058824,-1.38973597 34.9816471,-1.38524914 28.5588235,4.79712769 L5.28447059,27.2003327 C-1.13811765,33.3827095 -1.14282353,43.4169102 5.27435294,49.5938556 L28.5689412,72.016661 C34.9861176,78.1936064 45.4105882,78.1891196 51.8331765,72.0069789 L75.1075294,49.6035377 Z" id="Fill-1" fill="#79CE4D"></path>
                        <path d="M75.1075294,49.6035377 C81.5303529,43.4211609 81.5348235,33.3869602 75.1176471,27.2100148 L51.8230588,4.78720944 C45.4058824,-1.38973597 34.9816471,-1.38524914 28.5588235,4.79712769 L5.28447059,27.2003327 C-1.13811765,33.3827095 -1.14282353,43.4169102 5.27435294,49.5938556 L28.5689412,72.016661 C34.9861176,78.1936064 45.4105882,78.1891196 51.8331765,72.0069789 L75.1075294,49.6035377 Z" id="Stroke-2" stroke="#76C74B" stroke-width="0.24" stroke-linejoin="round"></path>
                        <path d="M40.4541176,18.6054593 C51.3776471,18.6054593 60.2461176,27.1420039 60.2461176,37.6567675 C60.2461176,48.171295 51.3776471,56.7078397 40.4541176,56.7078397 C29.5305882,56.7078397 20.6621176,48.171295 20.6621176,37.6567675 C20.6621176,27.1420039 29.5305882,18.6054593 40.4541176,18.6054593 L40.4541176,18.6054593 Z" id="Fill-3" fill="#EBEBEB"></path>
                        <path d="M40.4541176,18.6054593 C51.3776471,18.6054593 60.2461176,27.1420039 60.2461176,37.6567675 C60.2461176,48.171295 51.3776471,56.7078397 40.4541176,56.7078397 C29.5305882,56.7078397 20.6621176,48.171295 20.6621176,37.6567675 C20.6621176,27.1420039 29.5305882,18.6054593 40.4541176,18.6054593 L40.4541176,18.6054593 Z" id="Stroke-4" stroke="#EAEAEA" stroke-width="0.24" stroke-linejoin="round"></path>
                        <path d="M40.7418824,26.0488709 C47.2696471,26.0488709 52.5694118,31.1503945 52.5694118,37.433843 C52.5694118,43.7172916 47.2696471,48.8188151 40.7418824,48.8188151 C34.2141176,48.8188151 28.9143529,43.7172916 28.9143529,37.433843 C28.9143529,31.1503945 34.2141176,26.0488709 40.7418824,26.0488709 L40.7418824,26.0488709 Z" id="Fill-5" fill="#1A1A1B"></path>
                        <path d="M40.7418824,26.0488709 C47.2696471,26.0488709 52.5694118,31.1503945 52.5694118,37.433843 C52.5694118,43.7172916 47.2696471,48.8188151 40.7418824,48.8188151 C34.2141176,48.8188151 28.9143529,43.7172916 28.9143529,37.433843 C28.9143529,31.1503945 34.2141176,26.0488709 40.7418824,26.0488709 L40.7418824,26.0488709 Z" id="Stroke-6" stroke="#1A1A1B" stroke-width="0.24" stroke-linejoin="round"></path>
                        <path d="M46.3736471,23.3307977 C50.2141176,23.3307977 53.332,26.3320134 53.332,30.0286875 C53.332,33.7253615 50.2141176,36.7268134 46.3736471,36.7268134 C42.5331765,36.7268134 39.4152941,33.7253615 39.4152941,30.0286875 C39.4152941,26.3320134 42.5331765,23.3307977 46.3736471,23.3307977 L46.3736471,23.3307977 Z" id="Fill-7" fill="#F9F9F9"></path>
                        <path d="M48.3736471,23.3307977 C52.2141176,23.3307977 55.332,26.3320134 55.332,30.0286875 C55.332,33.7253615 52.2141176,36.7268134 48.3736471,36.7268134 C44.5331765,36.7268134 41.4152941,33.7253615 41.4152941,30.0286875 C41.4152941,26.3320134 44.5331765,23.3307977 48.3736471,23.3307977 L48.3736471,23.3307977 Z" id="Stroke-8" stroke="#F9FAF9" stroke-width="0.24" stroke-linejoin="round"></path>
                    </g>
                </g>
            </g>
        </g>
    </g>
</svg>
